<svg xmlns="http://www.w3.org/2000/svg" viewBox="0 0 981.86 599.84"><defs><style>.cls-1,.cls-5{fill:#f7941d;}.cls-1,.cls-7{stroke:#f7941d;}.cls-1,.cls-3,.cls-4,.cls-6,.cls-7{stroke-miterlimit:10;}.cls-2,.cls-3,.cls-4,.cls-6,.cls-7{fill:#fff;}.cls-3,.cls-4,.cls-6{stroke:#fff;}.cls-3{stroke-width:5px;}.cls-4{stroke-width:4px;}.cls-6,.cls-7{stroke-width:3px;}</style></defs><title>slide4</title><g id="Layer_2" data-name="Layer 2"><g id="Layer_1-2" data-name="Layer 1"><rect class="cls-1" x="0.5" y="0.5" width="980.86" height="598.84"/><path class="cls-2" d="M287.65,258.72c1.07,84.4,55.53,160.73,134.62,189.92S593,452,646.64,387.32a205.66,205.66,0,0,0,47.56-128.6c.15-12.07-18.6-12.08-18.75,0-1,75.75-49.95,145.83-121.3,172a183.26,183.26,0,0,1-112.84,4.44c-35.94-10.19-68-31.44-92-60a185.32,185.32,0,0,1-43-116.43c-.15-12.06-18.9-12.09-18.75,0Z"/><circle class="cls-3" cx="492.17" cy="437.57" r="20.02"/><path class="cls-2" d="M457.81,269.91c.6,18.46,15.6,34.06,34.45,33.75,18.46-.31,32.88-15.61,33.46-33.75.15-4.83-7.35-4.82-7.5,0-.45,14-11.65,26-26,26.25-14.7.24-26.48-11.79-26.95-26.25-.16-4.81-7.66-4.84-7.5,0Z"/><path class="cls-2" d="M360,274.92c.86,53.68,37.54,99.45,87.4,117.1,50.21,17.77,109.62,3.14,145.1-36.79,19.77-22.25,31.27-50.47,31.75-80.31.27-16.9-26-16.9-26.25,0,0,2.72-.16,5.44-.39,8.15-.12,1.34-.25,2.68-.43,4,.27-2-.34,1.84-.46,2.46a106.32,106.32,0,0,1-4.25,16,72.48,72.48,0,0,1-5.89,13,108.43,108.43,0,0,1-8.88,13.72c1.09-1.43-.88,1.07-1.2,1.45q-1.26,1.52-2.56,3-2.84,3.2-5.91,6.18-2.84,2.76-5.86,5.33-1.51,1.29-3.07,2.52c-1.17.93-.2.15,0,0q-1.06.8-2.14,1.57A121.35,121.35,0,0,1,542.82,361a79,79,0,0,1-13.63,5.95c-42.13,14.63-88.76,3.24-118.44-29.83a76,76,0,0,1-9.76-13q-2.43-3.88-4.53-7.95-1.05-2-2-4.11c-.28-.59-.54-1.19-.81-1.79-.9-2,.6,1.56-.2-.49a109.32,109.32,0,0,1-5.35-17.64c-.32-1.52-.57-3.05-.86-4.58,0,0-.35-2.21-.16-.9s-.16-1.36-.18-1.59c-.36-3.38-.53-6.76-.59-10.16C386,258,359.78,258,360,274.92Z"/><path class="cls-4" d="M301.69,174.24H290.91v-9.83h10.78ZM301,240h-9.47V183.67H301Z"/><path class="cls-4" d="M376.89,240h-13l-23.78-29.83H328.77V240h-10v-75h19.35a69.31,69.31,0,0,1,10.81.71,21.24,21.24,0,0,1,8.29,3.28,18.74,18.74,0,0,1,6.22,6.5,19.53,19.53,0,0,1,2.29,9.88q0,8.26-4.18,13.81a24.55,24.55,0,0,1-11.39,8.21ZM355.33,186a13.9,13.9,0,0,0-1.16-5.82,9.82,9.82,0,0,0-3.58-4.16,13.81,13.81,0,0,0-4.94-2,35.59,35.59,0,0,0-7-.58h-9.88v28.32h8.77a35.92,35.92,0,0,0,7.71-.76,11.81,11.81,0,0,0,5.85-3.12,13,13,0,0,0,3.2-5A20.59,20.59,0,0,0,355.33,186Z"/><path class="cls-4" d="M429.62,211.83q0,14.21-6.85,21.94t-18.24,7.73q-11.74,0-18.47-8t-6.73-21.69q0-14.11,6.93-21.92t18.27-7.81q11.39,0,18.24,7.79T429.62,211.83Zm-9.78,0q0-10.93-4-16.25t-11.34-5.32q-7.41,0-11.41,5.32t-4,16.25q0,10.58,4,16t11.41,5.47q7.31,0,11.31-5.37T419.85,211.83Z"/><path class="cls-4" d="M473.89,234q-1.16.86-3.1,2.39a21.85,21.85,0,0,1-3.75,2.44,28.4,28.4,0,0,1-4.86,2,23.89,23.89,0,0,1-6.58.71,17,17,0,0,1-12.09-5,17.19,17.19,0,0,1-3.63-5.72A20.57,20.57,0,0,1,441,213.67a16.85,16.85,0,0,1,7.81-6.53,38.77,38.77,0,0,1,11.19-3q6.45-.83,13.91-1.23V201.1a12.18,12.18,0,0,0-1-5.37,7.47,7.47,0,0,0-2.82-3.15,11.09,11.09,0,0,0-4.43-1.54,37.74,37.74,0,0,0-5.39-.38,36.31,36.31,0,0,0-7.71,1,51.74,51.74,0,0,0-8.87,2.85h-.55v-9.62q2.62-.76,7.51-1.66a52.92,52.92,0,0,1,9.67-.91,44.8,44.8,0,0,1,9.78.91,18.82,18.82,0,0,1,7.16,3.28,14,14,0,0,1,4.59,6,23.62,23.62,0,0,1,1.51,9V240h-9.42Zm0-7.86V210.47q-3.38.3-8.54.83a46,46,0,0,0-8.34,1.49,15.2,15.2,0,0,0-6.25,3.55,8.87,8.87,0,0,0-2.47,6.68q0,4.84,2.72,7.31t8,2.47a16.93,16.93,0,0,0,8.11-1.94A35.21,35.21,0,0,0,473.89,226.09Z"/><path class="cls-4" d="M563.6,240V207.4q0-3.88-.3-7.18a14.4,14.4,0,0,0-1.26-5.16,6.49,6.49,0,0,0-2.87-3,11.12,11.12,0,0,0-5-1,13.41,13.41,0,0,0-6.27,1.79,32.84,32.84,0,0,0-6.93,5.16q.05.86.13,2t.08,2.8v37h-9.47V207.4q0-3.88-.3-7.18a14.4,14.4,0,0,0-1.26-5.16,6.49,6.49,0,0,0-2.87-3,11.12,11.12,0,0,0-5-1,13.11,13.11,0,0,0-6.45,1.91,34.57,34.57,0,0,0-6.55,4.89v42h-9.47V183.67h9.47v6.25a34.24,34.24,0,0,1,7.38-5.77,16.2,16.2,0,0,1,8-2,17.11,17.11,0,0,1,8.84,2.27,14.2,14.2,0,0,1,5.87,7.46,37.86,37.86,0,0,1,8.36-7.26,16.82,16.82,0,0,1,8.87-2.47,18.39,18.39,0,0,1,6.6,1.13,13,13,0,0,1,5.19,3.65,17.77,17.77,0,0,1,3.5,6.4,31.84,31.84,0,0,1,1.23,9.62v37Z"/><path class="cls-4" d="M636.69,210.88q0,13.81-6.7,22.22t-16.78,8.42a23.9,23.9,0,0,1-7.84-1.13,34.34,34.34,0,0,1-6.42-3l-.6,2.62h-8.87V161.54h9.47v28a35.48,35.48,0,0,1,7.76-5.34,20.69,20.69,0,0,1,9.47-2.12,17.52,17.52,0,0,1,15,7.63Q636.69,197.37,636.69,210.88Zm-9.78.76q0-10.08-3.07-15.29T614,191.12a18.68,18.68,0,0,0-7.84,1.81,30.39,30.39,0,0,0-7.18,4.59v32.25a34.75,34.75,0,0,0,6.35,2.49,23.89,23.89,0,0,0,6.1.73q7.26,0,11.39-5.14T626.91,211.63Z"/><path class="cls-4" d="M681.05,234q-1.16.86-3.1,2.39a21.85,21.85,0,0,1-3.75,2.44,28.37,28.37,0,0,1-4.86,2,23.89,23.89,0,0,1-6.58.71,17,17,0,0,1-12.09-5A17.19,17.19,0,0,1,647,230.8a20.57,20.57,0,0,1,1.11-17.13,16.85,16.85,0,0,1,7.81-6.53,38.78,38.78,0,0,1,11.19-3q6.45-.83,13.91-1.23V201.1a12.18,12.18,0,0,0-1-5.37,7.46,7.46,0,0,0-2.82-3.15,11.08,11.08,0,0,0-4.43-1.54,37.73,37.73,0,0,0-5.39-.38,36.33,36.33,0,0,0-7.71,1,51.76,51.76,0,0,0-8.87,2.85h-.55v-9.62q2.62-.76,7.51-1.66a52.94,52.94,0,0,1,9.67-.91,44.8,44.8,0,0,1,9.78.91,18.81,18.81,0,0,1,7.16,3.28,14,14,0,0,1,4.59,6,23.62,23.62,0,0,1,1.51,9V240h-9.42Zm0-7.86V210.47q-3.38.3-8.54.83a46.06,46.06,0,0,0-8.34,1.49,15.21,15.21,0,0,0-6.25,3.55,8.87,8.87,0,0,0-2.47,6.68q0,4.84,2.72,7.31t8,2.47a16.93,16.93,0,0,0,8.11-1.94A35.21,35.21,0,0,0,681.05,226.09Z"/><path class="cls-2" d="M441.05,268.67c.63,26.77,22.47,49.4,49.57,49.57,27.34.17,49.54-22.59,50.18-49.57.06-2.41-3.69-2.41-3.75,0-.59,24.94-21.15,46-46.43,45.82-25-.19-45.24-21.06-45.82-45.82-.06-2.41-3.81-2.42-3.75,0Z"/><path class="cls-2" d="M535.4,319.06c-1.53,1.48-3.16,2.83-4.79,4.2-1.8,1.51,1.62-1.06-.34.24-.77.51-1.51,1.08-2.28,1.6q-2.61,1.77-5.36,3.32a61.59,61.59,0,0,1-60.38.58q-2.92-1.6-5.7-3.45c-.82-.55-1.62-1.13-2.44-1.69L453,323q1.51,1.18.58.45c-1.9-1.53-3.73-3.12-5.48-4.82-10.36-10.13-26.29,5.77-15.91,15.91a85,85,0,0,0,119.12.39c10.45-10.06-5.47-26-15.91-15.91Z"/><path class="cls-5" d="M539.38,323c-26.29,25.31-69.18,25.1-95.25-.39-5.18-5.06-13.14,2.88-8,8,30.49,29.8,80.46,29.95,111.16.39,5.23-5-2.74-13-8-8Z"/><line class="cls-6" x1="466.65" y1="349.83" x2="471.58" y2="337.71"/><line class="cls-6" x1="519.08" y1="349.83" x2="514.15" y2="337.71"/><path class="cls-2" d="M317,258.72c.95,71.81,47.11,137.2,114.45,162.23,68.17,25.33,146.61,3.35,192.91-52.37A175.71,175.71,0,0,0,665,258.72c.06-4.83-7.44-4.83-7.5,0-.91,68.75-45.4,131.87-110.15,155.42C482,437.9,408,417,363.51,364a167.61,167.61,0,0,1-39-105.3c-.06-4.82-7.56-4.84-7.5,0Z"/><circle class="cls-7" cx="491.76" cy="437.16" r="13.74"/></g></g></svg>