<svg xmlns="http://www.w3.org/2000/svg" viewBox="0 0 627 325"><defs><style>.cls-1{fill:#ed1c24;}.cls-2,.cls-3,.cls-4{fill:#1b75bc;}.cls-3{stroke:#1b75bc;}.cls-3,.cls-4{stroke-miterlimit:10;}.cls-4{stroke:#fff;}.cls-5{fill:none;}</style></defs><title>Asset 2</title><g id="Layer_2" data-name="Layer 2"><g id="Layer_1-2" data-name="Layer 1"><path class="cls-1" d="M579.77,310c.63-43.9-10.1-88.29-30-127.36C519.67,123.33,467,78,404.8,55.07A271,271,0,0,0,344.94,40.5c-4-.51-7.5,3.81-7.5,7.5,0,4.48,3.46,7,7.5,7.5l1.77.23c-1.48-.2-.75-.11.26,0,1.56.23,3.12.46,4.67.71q5.44.89,10.84,2a268.12,268.12,0,0,1,29,7.76,257.71,257.71,0,0,1,73.36,38C514.74,141.47,548,197.2,560,258a250.52,250.52,0,0,1,4.8,52c-.14,9.66,14.86,9.66,15,0Z"/><path class="cls-2" d="M131.33,310.07c1-76.71,50.6-147.5,122.86-173.88a185,185,0,0,1,113.87-4.27,189.51,189.51,0,0,1,92.61,60.47,187.3,187.3,0,0,1,43.47,117.68c.12,9.64,15.12,9.67,15,0-1.06-83.45-54.88-159.05-133.06-188-78.59-29.12-169.39-3.59-222.69,60.67a203.68,203.68,0,0,0-47.05,127.35c-.12,9.66,14.88,9.66,15,0Z"/><circle class="cls-3" cx="318.98" cy="131.22" r="20.02"/><circle class="cls-4" cx="318.56" cy="131.64" r="13.74"/><path class="cls-2" d="M290.23,305.89c.5-15.46,13.08-28.39,28.82-28.13,15.35.25,27.35,13.06,27.83,28.13.08,2.41,3.83,2.42,3.75,0-.55-17.11-14.16-31.59-31.58-31.88-17.81-.3-32,14.42-32.57,31.88-.08,2.41,3.67,2.41,3.75,0Z"/><path class="cls-2" d="M215,295.88c0-2.72.16-5.43.39-8.14q.17-2,.43-4c-.36,2.91.21-1,.39-2a106.08,106.08,0,0,1,4.24-15.95c.44-1.24.92-2.46,1.37-3.69,1-2.69-.7,1.34.52-1.25s2.43-5.12,3.79-7.61A113.9,113.9,0,0,1,235,239.55c-1.52,2,.32-.37.9-1.07q1.25-1.52,2.56-3,2.84-3.2,5.9-6.18,2.84-2.76,5.85-5.33c1-.86,2-1.69,3.07-2.52,1.33-1.07-.22.17-.41.32.71-.53,1.42-1.06,2.14-1.57a121.23,121.23,0,0,1,14.21-8.77c2.39-1.26,4.83-2.41,7.28-3.53,1.57-.72-.23.08-.47.18l1.89-.76q2.22-.87,4.47-1.66a122.82,122.82,0,0,1,16.63-4.5q2.06-.4,4.12-.74l2.08-.32c-.27,0-2.28.27-.5.09,3.06-.32,6.13-.59,9.21-.72a133.81,133.81,0,0,1,18.56.63c2.93.29-1.3-.27,1.59.2,1.38.22,2.76.45,4.13.71q4.42.84,8.78,2,4,1.06,7.88,2.39,1.94.66,3.85,1.39c.79.3,4.53,1.88,2.08.79a126.66,126.66,0,0,1,14.9,7.78q3.41,2.09,6.68,4.4c.5.35,3.28,2.4,2.22,1.59-1.3-1,.44.35.57.46.68.56,1.37,1.11,2,1.68A118,118,0,0,1,399,235q1.54,1.71,3,3.48l1.24,1.53c1.46,1.78-1.3-1.78.06.07,1.8,2.47,3.55,5,5.18,7.55s3.14,5.24,4.54,7.95q1.05,2,2,4.11c.28.59.54,1.19.81,1.79,1,2.1-.82-2.11,0,0a113.62,113.62,0,0,1,5.36,17.65c.32,1.52.59,3.05.86,4.58,0,.22.39,2.42.13.66s.11,1,.15,1.34c.36,3.38.54,6.77.59,10.17.13,7.84,6.81,15.37,15,15,8-.36,15.14-6.59,15-15-.88-54.58-38.17-101-88.86-118.92s-111-3.09-146.89,37.33c-20.08,22.63-31.76,51.26-32.25,81.6-.13,7.85,7,15.36,15,15,8.23-.37,14.87-6.59,15-15Z"/><rect class="cls-5" width="627" height="325"/></g></g></svg>