<svg xmlns="http://www.w3.org/2000/svg" viewBox="0 0 627 325"><defs><style>.cls-1{fill:#ed1c24;}.cls-2{fill:none;}</style></defs><title>left-red</title><g id="Layer_2" data-name="Layer 2"><g id="Layer_1-2" data-name="Layer 1"><path class="cls-1" d="M69.5,310A258.33,258.33,0,0,1,96.72,191.56,250.54,250.54,0,0,1,234,69.32a269.84,269.84,0,0,1,34.46-10.11q6.4-1.42,12.86-2.51,2.57-.43,5.15-.81l2.1-.3c-2.37.33.24,0,.74-.09,4-.51,7.5-3.08,7.5-7.5,0-3.66-3.45-8-7.5-7.5C243,46.38,198,64.15,160.62,92.3,108.41,131.66,72.7,189.37,59.94,253.42A270.44,270.44,0,0,0,54.5,310c.14,9.64,15.14,9.67,15,0Z"/><rect class="cls-2" width="627" height="325"/></g></g></svg>